<svg xmlns="http://www.w3.org/2000/svg" version="1.1" xmlns:xlink="http://www.w3.org/1999/xlink" xmlns:svgjs="http://svgjs.dev/svgjs" width="128" height="128" viewBox="0 0 128 128"><g transform="matrix(0.8046875,0,0,0.8046875,12.506335372881338,12.4680876356218)"><svg viewBox="0 0 59 59" data-background-color="#331e6d" preserveAspectRatio="xMidYMid meet" height="128" width="128" xmlns="http://www.w3.org/2000/svg" xmlns:xlink="http://www.w3.org/1999/xlink"><g id="tight-bounds" transform="matrix(1,0,0,1,-0.0036289999999894462,0.018279898041882348)"><svg viewBox="0 0 59.00725799999999 58.96344020391623" height="58.96344020391623" width="59.00725799999999"><g><svg viewBox="0 0 59.00725799999999 58.96344020391623" height="58.96344020391623" width="59.00725799999999"><g><svg viewBox="0 0 59.00725799999999 58.96344020391623" height="58.96344020391623" width="59.00725799999999"><g><svg viewBox="0 0 59.00725799999999 58.96344020391623" height="58.96344020391623" width="59.00725799999999"><g><svg viewBox="0 0 59.00725799999999 58.96344020391623" height="58.96344020391623" width="59.00725799999999"><g><svg viewBox="0 0 59.00725799999999 58.96344020391623" height="58.96344020391623" width="59.00725799999999"><g><svg viewBox="0 0 59.00725799999999 58.96344020391623" height="58.96344020391623" width="59.00725799999999"><g><svg xmlns="http://www.w3.org/2000/svg" xmlns:xlink="http://www.w3.org/1999/xlink" version="1.1" x="0" y="0" viewBox="4.979068214227292 5.025 90.04186357154538 89.975" style="enable-background:new 0 0 100 100;" xml:space="preserve" height="58.96344020391623" width="59.00725799999999" class="icon-icon-0" data-fill-palette-color="accent" id="icon-0"><path d="M94.2 37.4l-7.7-5.8c-0.2-0.2-0.3-0.3-0.6-0.4L51.2 5.4c-0.7-0.5-1.7-0.5-2.4 0L14.1 31.2c-0.2 0.1-0.4 0.2-0.6 0.4l-7.7 5.8c-0.9 0.7-1.1 1.9-0.4 2.8 0.7 0.9 1.9 1.1 2.8 0.4L13 37v48c0 5.5 4.5 10 10 10h54c5.5 0 10-4.5 10-10V37l4.8 3.6c0.4 0.3 0.8 0.4 1.2 0.4 0.6 0 1.2-0.3 1.6-0.8C95.3 39.3 95.1 38.1 94.2 37.4zM83 85c0 3.3-2.7 6-6 6H23c-3.3 0-6-2.7-6-6V34.1L50 9.5l33 24.6V85zM58.3 44.9c0.6-0.9 1.9-1.2 2.8-0.5C66.7 48.1 70 54.3 70 61c0 11-9 20-20 20-11 0-20-9-20-20 0-6.7 3.3-12.9 8.9-16.6 0.9-0.6 2.2-0.4 2.8 0.5s0.4 2.2-0.5 2.8c-4.5 3-7.1 8-7.1 13.3 0 8.8 7.2 16 16 16s16-7.2 16-16c0-5.3-2.7-10.3-7.1-13.3C58 47.1 57.7 45.8 58.3 44.9zM50 38c1.1 0 2 0.9 2 2v20c0 1.1-0.9 2-2 2s-2-0.9-2-2V40C48 38.9 48.9 38 50 38z" fill="#ffcf31" data-fill-palette-color="accent"></path></svg></g></svg></g></svg></g></svg></g></svg></g><g></g></svg></g></svg></g><defs></defs></svg><rect width="59.00725799999999" height="58.96344020391623" fill="none" stroke="none" visibility="hidden"></rect></g></svg></g></svg>