<svg xmlns="http://www.w3.org/2000/svg" version="1.1" xmlns:xlink="http://www.w3.org/1999/xlink" xmlns:svgjs="http://svgjs.dev/svgjs" width="1000" height="935" viewBox="0 0 1000 935"><g transform="matrix(1,0,0,1,-0.9059540396049215,0.3785425101214628)"><svg viewBox="0 0 264 247" data-background-color="#331e6d" preserveAspectRatio="xMidYMid meet" height="935" width="1000" xmlns="http://www.w3.org/2000/svg" xmlns:xlink="http://www.w3.org/1999/xlink"><g id="tight-bounds" transform="matrix(1,0,0,1,0.2391718664557061,-0.09999999999999432)"><svg viewBox="0 0 263.5216562670886 247.2" height="247.2" width="263.5216562670886"><g><svg viewBox="0 0 263.5216562670886 247.2" height="247.2" width="263.5216562670886"><g><svg viewBox="0 0 395.52 371.0228046719016" height="247.2" width="263.5216562670886"><g transform="matrix(1,0,0,1,0,256.55581450483817)"><svg viewBox="0 0 395.52 114.46699016706344" height="114.46699016706344" width="395.52"><g><svg viewBox="0 0 395.52 114.46699016706344" height="114.46699016706344" width="395.52"><g><svg viewBox="0 0 395.52 61.738024852844994" height="61.738024852844994" width="395.52"><g transform="matrix(1,0,0,1,0,0)"><svg width="395.52" viewBox="0 -35.8 229.34 35.8" height="61.738024852844994" data-palette-color="#ffcf31"><path d="M10.75-2.15L30.2-2.15 30.2 0 0 0 0-2.15 4.85-2.15 4.85-34.95 28.15-34.95 28.1-29.45 10.75-29.45 10.75-19.85 26.25-19.85 26.25-14.4 10.75-14.4 10.75-2.15ZM30.2-2.15L35.05-2.15 35.05-34.95 59.6-34.95 59.6-29.4 40.95-29.4 40.95-20.15 57.7-20.15 57.7-14.9 40.95-14.9 40.95-5.55 60.2-5.55 60.2-2.15 65.05-2.15 65.05 0 30.2 0 30.2-2.15ZM88.15-2.15L94.4-2.15 94.4 0 62.9 0 62.9-2.15 69.3-2.15Q66.9-3.4 64.9-5.25L64.9-5.25 68.6-9.7Q73.9-5.1 79.6-5.1L79.6-5.1Q82.45-5.1 84.12-6.33 85.8-7.55 85.8-9.58 85.8-11.6 84.22-12.73 82.65-13.85 78.8-14.78 74.95-15.7 72.95-16.48 70.95-17.25 69.4-18.5L69.4-18.5Q66.3-20.85 66.3-25.7 66.3-30.55 69.82-33.18 73.35-35.8 78.55-35.8L78.55-35.8Q81.9-35.8 85.2-34.7 88.5-33.6 90.9-31.6L90.9-31.6 87.75-27.15Q86.2-28.55 83.55-29.45 80.9-30.35 78.32-30.35 75.75-30.35 74.1-29.3 72.45-28.25 72.45-26.13 72.45-24 74.1-22.88 75.75-21.75 81.12-20.45 86.5-19.15 89.22-16.8 91.95-14.45 91.95-10.2L91.95-10.2Q91.95-5.05 88.15-2.15L88.15-2.15ZM112.44-2.15L124.59-2.15 124.59 0 94.39 0 94.39-2.15 106.54-2.15 106.54-29.55 95.94-29.55 95.94-34.95 123.04-34.95 123.04-29.55 112.44-29.55 112.44-2.15ZM132.44-12.3L125.34-12.3 125.34-17.55 141.94-17.55 141.94-12.3 134.79-12.3 134.79-2.15 145.54-2.15 145.54 0 121.74 0 121.74-2.15 132.44-2.15 132.44-12.3ZM176.09-2.15L187.54-2.15 187.54 0 145.54 0 145.54-2.15 156.99-2.15Q152.89-4.5 150.51-8.6 148.14-12.7 148.14-17.75L148.14-17.75Q148.14-25.45 153.44-30.63 158.74-35.8 166.54-35.8 174.34-35.8 179.64-30.63 184.94-25.45 184.94-17.75L184.94-17.75Q184.94-12.75 182.56-8.6 180.19-4.45 176.09-2.15L176.09-2.15ZM175.31-26.7Q171.74-30.4 166.54-30.4 161.34-30.4 157.76-26.7 154.19-23 154.19-17.73 154.19-12.45 157.76-8.75 161.34-5.05 166.54-5.05 171.74-5.05 175.31-8.75 178.89-12.45 178.89-17.73 178.89-23 175.31-26.7ZM187.54-2.15L192.39-2.15 192.39-34.95 198.29-34.95 218.59-8.85 218.59-34.95 224.49-34.95 224.49-2.15 229.34-2.15 229.34 0 218.09 0 198.29-25.5 198.29 0 187.54 0 187.54-2.15Z" opacity="1" transform="matrix(1,0,0,1,0,0)" fill="#ffcf31" class="undefined-text-0" data-fill-palette-color="primary" id="text-0"></path></svg></g></svg></g><g transform="matrix(1,0,0,1,78.49668675713826,76.31289080800522)"><svg viewBox="0 0 238.52662648572345 38.154099359058215" height="38.154099359058215" width="238.52662648572345"><g transform="matrix(1,0,0,1,0,0)"><svg width="238.52662648572345" viewBox="1.1 -37.5 234.71 37.55" height="38.154099359058215" data-palette-color="#ffcf31"><path d="M5.75 0.05L1.1 0.05 8.15-34.95 12.7-34.95 19.65 0.05 15 0.05 13.65-6.5 7-6.5 5.75 0.05ZM10.45-23.55L7.9-11.1 12.85-11.1 10.45-23.55ZM32.2 0L25.4 0Q23.85 0 22.8-1.07 21.75-2.15 21.75-3.65L21.75-3.65 21.75-21.35Q21.75-22.85 22.8-23.93 23.85-25 25.4-25L25.4-25 32.2-25Q33.7-25 34.77-23.93 35.85-22.85 35.85-21.35L35.85-21.35 35.85-15.9 31.15-15.9 31.15-18.5Q31.15-19.25 30.6-19.78 30.05-20.3 29.3-20.3L29.3-20.3 28.25-20.3Q27.5-20.3 26.97-19.78 26.45-19.25 26.45-18.5L26.45-18.5 26.45-6.5Q26.45-5.75 26.97-5.23 27.5-4.7 28.25-4.7L28.25-4.7 29.3-4.7Q30.05-4.7 30.6-5.23 31.15-5.75 31.15-6.5L31.15-6.5 31.15-9.1 35.85-9.1 35.85-3.65Q35.85-2.15 34.77-1.07 33.7 0 32.2 0L32.2 0ZM49.3 0L42.49 0Q40.95 0 39.89-1.07 38.84-2.15 38.84-3.65L38.84-3.65 38.84-21.35Q38.84-22.85 39.89-23.93 40.95-25 42.49-25L42.49-25 49.3-25Q50.8-25 51.87-23.93 52.95-22.85 52.95-21.35L52.95-21.35 52.95-15.9 48.24-15.9 48.24-18.5Q48.24-19.25 47.7-19.78 47.14-20.3 46.39-20.3L46.39-20.3 45.34-20.3Q44.59-20.3 44.07-19.78 43.55-19.25 43.55-18.5L43.55-18.5 43.55-6.5Q43.55-5.75 44.07-5.23 44.59-4.7 45.34-4.7L45.34-4.7 46.39-4.7Q47.14-4.7 47.7-5.23 48.24-5.75 48.24-6.5L48.24-6.5 48.24-9.1 52.95-9.1 52.95-3.65Q52.95-2.15 51.87-1.07 50.8 0 49.3 0L49.3 0ZM70.04 0L59.59 0Q58.09 0 57.02-1.07 55.94-2.15 55.94-3.65L55.94-3.65 55.94-21.4Q55.94-22.9 57.02-23.95 58.09-25 59.59-25L59.59-25 66.39-25Q67.94-25 68.99-23.95 70.04-22.9 70.04-21.4L70.04-21.4 70.04-13.8Q70.04-12.3 68.99-11.23 67.94-10.15 66.39-10.15L66.39-10.15 60.64-10.15 60.64-6.5Q60.64-5.75 61.17-5.23 61.69-4.7 62.49-4.7L62.49-4.7 68.99-4.7 70.04 0ZM60.64-18.5L60.64-14.85 63.54-14.85Q64.29-14.85 64.82-15.38 65.34-15.9 65.34-16.65L65.34-16.65 65.34-18.5Q65.34-19.25 64.82-19.78 64.29-20.3 63.54-20.3L63.54-20.3 62.49-20.3Q61.69-20.3 61.17-19.78 60.64-19.25 60.64-18.5L60.64-18.5ZM77.94 0L73.24 0 73.24-25 83.69-25Q85.14-25 86.24-23.95 87.34-22.9 87.34-21.4L87.34-21.4 87.34 0 82.64 0 82.64-18.5Q82.64-19.3 82.09-19.8 81.54-20.3 80.84-20.3L80.84-20.3 77.94-20.3 77.94 0ZM104.14 0L93.69 0Q92.14 0 91.09-1.05 90.04-2.1 90.04-3.65L90.04-3.65 90.04-21.35Q90.04-22.9 91.09-23.95 92.14-25 93.69-25L93.69-25 99.44-25 99.44-36.4 104.14-37.5 104.14 0ZM96.54-4.7L96.54-4.7 99.44-4.7 99.44-20.3 96.54-20.3Q95.84-20.3 95.29-19.8 94.74-19.3 94.74-18.5L94.74-18.5 94.74-6.5Q94.74-5.8 95.29-5.25 95.84-4.7 96.54-4.7ZM111.84-32.8L107.14-31.7 107.14-36.4 111.84-37.5 111.84-32.8ZM111.94 0L107.24 0 107.24-23.9 111.94-25 111.94 0ZM128.63 0L123.93 0 123.93-36.35 128.63-37.4 128.63 0ZM145.73 0L135.28 0Q133.78 0 132.7-1.05 131.63-2.1 131.63-3.65L131.63-3.65 131.63-11.2Q131.63-12.7 132.7-13.78 133.78-14.85 135.28-14.85L135.28-14.85 139.18-14.85Q139.98-14.85 140.5-15.38 141.03-15.9 141.03-16.65L141.03-16.65 141.03-18.5Q141.03-19.25 140.5-19.78 139.98-20.3 139.18-20.3L139.18-20.3 133.78-20.3 134.83-25 142.08-25Q143.58-25 144.65-23.93 145.73-22.85 145.73-21.35L145.73-21.35 145.73 0ZM138.13-4.7L138.13-4.7 141.03-4.7 141.03-10.15 138.13-10.15Q137.38-10.15 136.85-9.63 136.33-9.1 136.33-8.35L136.33-8.35 136.33-6.5Q136.33-5.75 136.85-5.23 137.38-4.7 138.13-4.7ZM161.37 0L156.72 0 156.72-33.8Q156.72-35.3 157.77-36.35 158.82-37.4 160.27-37.4L160.27-37.4 167.12-37.4Q168.62-37.4 169.67-36.35 170.72-35.3 170.72-33.8L170.72-33.8 170.72-28.4 166.07-29.4 166.07-30.95Q166.07-31.65 165.55-32.18 165.02-32.7 164.27-32.7L164.27-32.7 163.17-32.7Q162.42-32.7 161.9-32.18 161.37-31.65 161.37-30.95L161.37-30.95 161.37-24.95 167.27-24.95 166.22-20.25 161.37-20.25 161.37 0ZM182.82 0L172.37 0Q170.87 0 169.8-1.07 168.72-2.15 168.72-3.65L168.72-3.65 168.72-21.4Q168.72-22.9 169.8-23.95 170.87-25 172.37-25L172.37-25 179.17-25Q180.72-25 181.77-23.95 182.82-22.9 182.82-21.4L182.82-21.4 182.82-13.8Q182.82-12.3 181.77-11.23 180.72-10.15 179.17-10.15L179.17-10.15 173.42-10.15 173.42-6.5Q173.42-5.75 173.95-5.23 174.47-4.7 175.27-4.7L175.27-4.7 181.77-4.7 182.82 0ZM173.42-18.5L173.42-14.85 176.32-14.85Q177.07-14.85 177.6-15.38 178.12-15.9 178.12-16.65L178.12-16.65 178.12-18.5Q178.12-19.25 177.6-19.78 177.07-20.3 176.32-20.3L176.32-20.3 175.27-20.3Q174.47-20.3 173.95-19.78 173.42-19.25 173.42-18.5L173.42-18.5ZM196.27 0L189.42 0Q187.92 0 186.87-1.07 185.82-2.15 185.82-3.65L185.82-3.65 185.82-7.8 190.47-7.8 190.47-6.5Q190.47-5.75 191.02-5.23 191.57-4.7 192.32-4.7L192.32-4.7 193.37-4.7Q194.12-4.7 194.64-5.23 195.17-5.75 195.17-6.5L195.17-6.5 195.17-8.35Q195.17-9.1 194.64-9.63 194.12-10.15 193.37-10.15L193.37-10.15 189.42-10.15Q187.92-10.15 186.87-11.23 185.82-12.3 185.82-13.8L185.82-13.8 185.82-21.35Q185.82-22.85 186.87-23.93 187.92-25 189.42-25L189.42-25 196.27-25Q197.77-25 198.82-23.93 199.87-22.85 199.87-21.35L199.87-21.35 199.87-17.2 195.17-17.2 195.17-18.5Q195.17-19.25 194.64-19.78 194.12-20.3 193.37-20.3L193.37-20.3 192.32-20.3Q191.57-20.3 191.02-19.78 190.47-19.25 190.47-18.5L190.47-18.5 190.47-16.65Q190.47-15.9 191.02-15.38 191.57-14.85 192.32-14.85L192.32-14.85 196.27-14.85Q197.77-14.85 198.82-13.78 199.87-12.7 199.87-11.2L199.87-11.2 199.87-3.45Q199.82-2.05 198.77-1.03 197.72 0 196.27 0L196.27 0ZM207.57 0L202.87 0 202.87-36.4 207.57-37.45 207.57-25 213.52-25 212.42-20.3 207.57-20.3 207.57 0ZM227.11 0L216.66 0Q215.16 0 214.09-1.05 213.01-2.1 213.01-3.65L213.01-3.65 213.01-11.2Q213.01-12.7 214.09-13.78 215.16-14.85 216.66-14.85L216.66-14.85 220.56-14.85Q221.36-14.85 221.89-15.38 222.41-15.9 222.41-16.65L222.41-16.65 222.41-18.5Q222.41-19.25 221.89-19.78 221.36-20.3 220.56-20.3L220.56-20.3 215.16-20.3 216.21-25 223.46-25Q224.96-25 226.04-23.93 227.11-22.85 227.11-21.35L227.11-21.35 227.11 0ZM219.51-4.7L219.51-4.7 222.41-4.7 222.41-10.15 219.51-10.15Q218.76-10.15 218.24-9.63 217.71-9.1 217.71-8.35L217.71-8.35 217.71-6.5Q217.71-5.75 218.24-5.23 218.76-4.7 219.51-4.7ZM235.81-9.35L231.11-9.35 231.11-36.3 235.81-37.4 235.81-9.35ZM235.81 0L231.11 0 231.11-4.7 235.81-4.7 235.81 0Z" opacity="1" transform="matrix(1,0,0,1,0,0)" fill="#ffcf31" class="undefined-text-1" data-fill-palette-color="secondary" id="text-1"></path></svg></g></svg></g></svg></g></svg></g><g transform="matrix(1,0,0,1,84.05695870274114,0)"><svg viewBox="0 0 227.4060825945177 227.4060825945177" height="227.4060825945177" width="227.4060825945177"><g><svg></svg></g><g id="icon-0"><svg viewBox="0 0 227.4060825945177 227.4060825945177" height="227.4060825945177" width="227.4060825945177"><g><path d="M0 113.703c0-62.796 50.907-113.703 113.703-113.703 62.796 0 113.703 50.907 113.703 113.703 0 62.796-50.907 113.703-113.703 113.703-62.796 0-113.703-50.907-113.703-113.703zM113.703 221.838c59.722 0 108.135-48.414 108.135-108.135 0-59.722-48.414-108.135-108.135-108.135-59.722 0-108.135 48.414-108.135 108.135 0 59.722 48.414 108.135 108.135 108.135z" data-fill-palette-color="accent" fill="#ffcf31" stroke="transparent"></path><ellipse rx="112.56601088428626" ry="112.56601088428626" cx="113.70304129725885" cy="113.70304129725885" fill="#ffcf31" stroke="transparent" stroke-width="0" fill-opacity="1" data-fill-palette-color="accent"></ellipse></g><g transform="matrix(1,0,0,1,47.83483300967356,47.8837456318996)"><svg viewBox="0 0 131.73641657517058 131.6385913307185" height="131.6385913307185" width="131.73641657517058"><g><svg xmlns="http://www.w3.org/2000/svg" xmlns:xlink="http://www.w3.org/1999/xlink" version="1.1" x="0" y="0" viewBox="4.979068214227292 5.025 90.04186357154538 89.975" style="enable-background:new 0 0 100 100;" xml:space="preserve" height="131.6385913307185" width="131.73641657517058" class="icon-kj-0" data-fill-palette-color="quaternary" id="kj-0"><path d="M94.2 37.4l-7.7-5.8c-0.2-0.2-0.3-0.3-0.6-0.4L51.2 5.4c-0.7-0.5-1.7-0.5-2.4 0L14.1 31.2c-0.2 0.1-0.4 0.2-0.6 0.4l-7.7 5.8c-0.9 0.7-1.1 1.9-0.4 2.8 0.7 0.9 1.9 1.1 2.8 0.4L13 37v48c0 5.5 4.5 10 10 10h54c5.5 0 10-4.5 10-10V37l4.8 3.6c0.4 0.3 0.8 0.4 1.2 0.4 0.6 0 1.2-0.3 1.6-0.8C95.3 39.3 95.1 38.1 94.2 37.4zM83 85c0 3.3-2.7 6-6 6H23c-3.3 0-6-2.7-6-6V34.1L50 9.5l33 24.6V85zM58.3 44.9c0.6-0.9 1.9-1.2 2.8-0.5C66.7 48.1 70 54.3 70 61c0 11-9 20-20 20-11 0-20-9-20-20 0-6.7 3.3-12.9 8.9-16.6 0.9-0.6 2.2-0.4 2.8 0.5s0.4 2.2-0.5 2.8c-4.5 3-7.1 8-7.1 13.3 0 8.8 7.2 16 16 16s16-7.2 16-16c0-5.3-2.7-10.3-7.1-13.3C58 47.1 57.7 45.8 58.3 44.9zM50 38c1.1 0 2 0.9 2 2v20c0 1.1-0.9 2-2 2s-2-0.9-2-2V40C48 38.9 48.9 38 50 38z" fill="#331e6d" data-fill-palette-color="quaternary"></path></svg></g></svg></g></svg></g></svg></g><g></g></svg></g></svg></g><defs></defs></svg><rect width="263.5216562670886" height="247.2" fill="none" stroke="none" visibility="hidden"></rect></g></svg></g></svg>