<svg xmlns="http://www.w3.org/2000/svg" version="1.1" xmlns:xlink="http://www.w3.org/1999/xlink" viewBox="0 0 227.4 227.4" data-background-color="#331e6d" preserveAspectRatio="xMidYMid meet" height="227.4" width="227.4"><g id="tight-bounds"><svg viewBox="0 0 500 500" height="500" width="500"><g><svg viewBox="0 0 500 500" height="500" width="500"><g><svg viewBox="0 0 500 500" height="500" width="500"><g><svg viewBox="0 0 500 500" height="500" width="500"><g><svg></svg></g><g id="icon-0"><svg viewBox="0 0 500 500" height="500" width="500"><g><path d="M0 113.703c0-62.796 50.907-113.703 113.703-113.703 62.796 0 113.703 50.907 113.703 113.703 0 62.796-50.907 113.703-113.703 113.703-62.796 0-113.703-50.907-113.703-113.703zM113.703 221.838c59.722 0 108.135-48.414 108.135-108.135 0-59.722-48.414-108.135-108.135-108.135-59.722 0-108.135 48.414-108.135 108.135 0 59.722 48.414 108.135 108.135 108.135z" data-fill-palette-color="accent" fill="#ffcf31" stroke="transparent"></path><ellipse rx="112.56601088428626" ry="112.56601088428626" cx="113.70304129725885" cy="113.70304129725885" fill="#ffcf31" stroke="transparent" stroke-width="0" fill-opacity="1" data-fill-palette-color="accent"></ellipse></g><g transform="matrix(1,0,0,1,47.83483300967356,47.8837456318996)"><svg viewBox="0 0 131.73641657517058 131.6385913307185" height="131.6385913307185" width="131.73641657517058"><g><svg xmlns="http://www.w3.org/2000/svg" xmlns:xlink="http://www.w3.org/1999/xlink" version="1.1" x="0" y="0" viewBox="4.979068214227292 5.025 90.04186357154538 89.975" style="enable-background:new 0 0 100 100;" xml:space="preserve" height="131.6385913307185" width="131.73641657517058" class="icon-kj-0" data-fill-palette-color="quaternary" id="kj-0"><path d="M94.2 37.4l-7.7-5.8c-0.2-0.2-0.3-0.3-0.6-0.4L51.2 5.4c-0.7-0.5-1.7-0.5-2.4 0L14.1 31.2c-0.2 0.1-0.4 0.2-0.6 0.4l-7.7 5.8c-0.9 0.7-1.1 1.9-0.4 2.8 0.7 0.9 1.9 1.1 2.8 0.4L13 37v48c0 5.5 4.5 10 10 10h54c5.5 0 10-4.5 10-10V37l4.8 3.6c0.4 0.3 0.8 0.4 1.2 0.4 0.6 0 1.2-0.3 1.6-0.8C95.3 39.3 95.1 38.1 94.2 37.4zM83 85c0 3.3-2.7 6-6 6H23c-3.3 0-6-2.7-6-6V34.1L50 9.5l33 24.6V85zM58.3 44.9c0.6-0.9 1.9-1.2 2.8-0.5C66.7 48.1 70 54.3 70 61c0 11-9 20-20 20-11 0-20-9-20-20 0-6.7 3.3-12.9 8.9-16.6 0.9-0.6 2.2-0.4 2.8 0.5s0.4 2.2-0.5 2.8c-4.5 3-7.1 8-7.1 13.3 0 8.8 7.2 16 16 16s16-7.2 16-16c0-5.3-2.7-10.3-7.1-13.3C58 47.1 57.7 45.8 58.3 44.9zM50 38c1.1 0 2 0.9 2 2v20c0 1.1-0.9 2-2 2s-2-0.9-2-2V40C48 38.9 48.9 38 50 38z" fill="#331e6d" data-fill-palette-color="quaternary"></path></svg></g></svg></g></svg></g></svg></g><g></g></svg></g></svg></g><defs></defs></svg></g></svg>